<?xml version="1.0" encoding="utf-8"?>
<!-- Generator: Adobe Illustrator 16.0.3, SVG Export Plug-In . SVG Version: 6.00 Build 0)  -->
<!DOCTYPE svg PUBLIC "-//W3C//DTD SVG 1.1//EN" "http://www.w3.org/Graphics/SVG/1.1/DTD/svg11.dtd">
<svg version="1.1" id="Capa_1" xmlns="http://www.w3.org/2000/svg" xmlns:xlink="http://www.w3.org/1999/xlink" x="0px" y="0px"
	 width="317.75px" height="332px" viewBox="0 0 317.75 332" enable-background="new 0 0 317.75 332" xml:space="preserve">
<path fill="none" stroke="#000000" stroke-width="16" stroke-miterlimit="10" d="M141.374,137.5c0,6.627-5.373,12-12,12H23.375
	c-6.627,0-12-5.373-12-12v-115c0-6.627,5.373-12,12-12h105.999c6.627,0,12,5.373,12,12V137.5z"/>
<path fill="none" stroke="#000000" stroke-width="16" stroke-miterlimit="10" d="M306.375,137.5c0,6.627-5.373,12-12,12h-106
	c-6.627,0-12-5.373-12-12v-115c0-6.627,5.373-12,12-12h106c6.627,0,12,5.373,12,12V137.5z"/>
<path fill="none" stroke="#000000" stroke-width="16" stroke-miterlimit="10" d="M141.374,309.5c0,6.627-5.373,12-12,12H23.375
	c-6.627,0-12-5.373-12-12v-115c0-6.627,5.373-12,12-12h105.999c6.627,0,12,5.373,12,12V309.5z"/>
<path fill="none" stroke="#000000" stroke-width="16" stroke-miterlimit="10" d="M306.375,309.5c0,6.627-5.373,12-12,12h-106
	c-6.627,0-12-5.373-12-12v-115c0-6.627,5.373-12,12-12h106c6.627,0,12,5.373,12,12V309.5z"/>
<line fill="none" stroke="#000000" stroke-width="16" stroke-miterlimit="10" x1="76.374" y1="49.5" x2="76.374" y2="107.5"/>
<line fill="none" stroke="#000000" stroke-width="16" stroke-miterlimit="10" x1="46.375" y1="78.5" x2="103.374" y2="78.5"/>
<line fill="none" stroke="#000000" stroke-width="16" stroke-miterlimit="10" x1="212.875" y1="78.5" x2="269.875" y2="78.5"/>
<line fill="none" stroke="#000000" stroke-width="16" stroke-miterlimit="10" x1="48.797" y1="252" x2="105.797" y2="252"/>
<ellipse fill="none" stroke="#000000" stroke-width="12" stroke-miterlimit="10" cx="77.297" cy="228.018" rx="3.828" ry="4.838"/>
<ellipse fill="none" stroke="#000000" stroke-width="12" stroke-miterlimit="10" cx="77.297" cy="274.5" rx="3.828" ry="4.838"/>
<line fill="none" stroke="#000000" stroke-width="12" stroke-miterlimit="10" x1="212.875" y1="252" x2="269.875" y2="252"/>
<line fill="none" stroke="#000000" stroke-width="12" stroke-miterlimit="10" x1="241.473" y1="223.246" x2="241.473" y2="281.246"/>
<line fill="none" stroke="#000000" stroke-width="12" stroke-miterlimit="10" x1="260.545" y1="230.487" x2="222.203" y2="274.006"/>
<line fill="none" stroke="#000000" stroke-width="12" stroke-miterlimit="10" x1="219.143" y1="233.744" x2="263.805" y2="270.749"/>
</svg>
