<?xml version="1.0" encoding="utf-8"?>
<!-- Generator: Adobe Illustrator 16.0.3, SVG Export Plug-In . SVG Version: 6.00 Build 0)  -->
<!DOCTYPE svg PUBLIC "-//W3C//DTD SVG 1.1//EN" "http://www.w3.org/Graphics/SVG/1.1/DTD/svg11.dtd">
<svg version="1.1" id="Capa_1" xmlns="http://www.w3.org/2000/svg" xmlns:xlink="http://www.w3.org/1999/xlink" x="0px" y="0px"
	 width="960px" height="560px" viewBox="0 0 960 560" enable-background="new 0 0 960 560" xml:space="preserve">
<circle fill="none" stroke="#000000" stroke-width="16" stroke-miterlimit="10" cx="480.901" cy="280.754" r="233.5"/>
<path fill="none" stroke="#000000" stroke-width="16" stroke-miterlimit="10" d="M467,252c0,6.627-5.373,12-12,12H349
	c-6.627,0-12-5.373-12-12V137c0-6.627,5.373-12,12-12h106c6.627,0,12,5.373,12,12V252z"/>
<path fill="none" stroke="#000000" stroke-width="16" stroke-miterlimit="10" d="M632,252c0,6.627-5.373,12-12,12H514
	c-6.627,0-12-5.373-12-12V137c0-6.627,5.373-12,12-12h106c6.627,0,12,5.373,12,12V252z"/>
<path fill="none" stroke="#000000" stroke-width="16" stroke-miterlimit="10" d="M467,424c0,6.627-5.373,12-12,12H349
	c-6.627,0-12-5.373-12-12V309c0-6.627,5.373-12,12-12h106c6.627,0,12,5.373,12,12V424z"/>
<path fill="none" stroke="#000000" stroke-width="16" stroke-miterlimit="10" d="M632,424c0,6.627-5.373,12-12,12H514
	c-6.627,0-12-5.373-12-12V309c0-6.627,5.373-12,12-12h106c6.627,0,12,5.373,12,12V424z"/>
<line fill="none" stroke="#000000" stroke-width="16" stroke-miterlimit="10" x1="402" y1="164" x2="402" y2="222"/>
<line fill="none" stroke="#000000" stroke-width="16" stroke-miterlimit="10" x1="372" y1="193" x2="429" y2="193"/>
<line fill="none" stroke="#000000" stroke-width="16" stroke-miterlimit="10" x1="538.5" y1="193" x2="595.5" y2="193"/>
<line fill="none" stroke="#000000" stroke-width="16" stroke-miterlimit="10" x1="374.422" y1="366.5" x2="431.422" y2="366.5"/>
<ellipse fill="none" stroke="#000000" stroke-width="12" stroke-miterlimit="10" cx="402.922" cy="342.518" rx="3.83" ry="4.838"/>
<ellipse fill="none" stroke="#000000" stroke-width="12" stroke-miterlimit="10" cx="402.922" cy="389" rx="3.83" ry="4.838"/>
<line fill="none" stroke="#000000" stroke-width="12" stroke-miterlimit="10" x1="538.5" y1="366.5" x2="595.5" y2="366.5"/>
<line fill="none" stroke="#000000" stroke-width="12" stroke-miterlimit="10" x1="567.099" y1="337.746" x2="567.099" y2="395.746"/>
<line fill="none" stroke="#000000" stroke-width="12" stroke-miterlimit="10" x1="586.171" y1="344.987" x2="547.829" y2="388.506"/>
<line fill="none" stroke="#000000" stroke-width="12" stroke-miterlimit="10" x1="544.768" y1="348.244" x2="589.43" y2="385.249"/>
</svg>
