<?xml version="1.0" encoding="utf-8"?>
<!-- Generator: Adobe Illustrator 16.0.3, SVG Export Plug-In . SVG Version: 6.00 Build 0)  -->
<!DOCTYPE svg PUBLIC "-//W3C//DTD SVG 1.1//EN" "http://www.w3.org/Graphics/SVG/1.1/DTD/svg11.dtd">
<svg version="1.1" id="Capa_1" xmlns="http://www.w3.org/2000/svg" xmlns:xlink="http://www.w3.org/1999/xlink" x="0px" y="0px"
	 width="234px" height="395px" viewBox="0 0 234 395" enable-background="new 0 0 234 395" xml:space="preserve">
<path fill="none" stroke="#000000" stroke-width="16" stroke-miterlimit="10" d="M117.945,9.239c0,0,62.031-6.075,97.723,61.509
	c0,0,31.135,67.583-34.93,136.688c0,0-5.316-6.834-13.67,63.025c0,0,2.275,6.076-19.742,6.835h-33.712H73.667
	c0,0-2.278-0.381-4.461-2.374c-2.183-1.99-4.271-5.6-3.892-12.055c0,0,0-47.841-12.15-53.155c0,0-69.102-75.178-30.375-147.316
	c0,0,24.834-52.68,91.771-53.297L117.945,9.239z"/>
<path fill="none" stroke="#000000" stroke-width="16" stroke-miterlimit="10" d="M117,277.299H77.625c0,0-20.503,53.155,0,72.899
	c0,0,23.542,29.615,79.735,5.315c0,0,31.133-11.395,3.797-78.218L117,277.299L117,277.299z"/>
<line fill="none" stroke="#000000" stroke-width="6" stroke-miterlimit="10" x1="69.433" y1="339.386" x2="129.262" y2="321.193"/>
<line fill="none" stroke="#000000" stroke-width="6" stroke-miterlimit="10" x1="78.383" y1="348.68" x2="129.262" y2="333.46"/>
<line fill="none" stroke="#000000" stroke-width="6" stroke-miterlimit="10" x1="65.555" y1="328.803" x2="116.434" y2="313.584"/>
<line fill="none" stroke="#000000" stroke-width="6" stroke-miterlimit="10" x1="137.773" y1="307.063" x2="173.855" y2="294.674"/>
<line fill="none" stroke="#000000" stroke-width="6" stroke-miterlimit="10" x1="135.49" y1="294.674" x2="166.24" y2="284.56"/>
<path fill="none" stroke="#000000" stroke-width="9" stroke-miterlimit="10" d="M93.307,360.805c0,0-0.497,24.323,19.249,25.085
	c0,0,32.729,1.313,28.135-24.402L93.307,360.805z"/>
<path fill="none" stroke="#000000" stroke-width="9" stroke-miterlimit="10" d="M99.347,277.298"/>
<path fill="none" stroke="#000000" stroke-width="5" stroke-miterlimit="10" d="M84.045,163.073
	c0.667,0.062,1.344,0.117,2.028,0.163c9.305,8.334,11.305,5.334,21.336,0.913c0.774,0.325,1.521,0.637,2.247,0.928
	c5.063,2.031,8.962,2.979,13.421-0.202c0.316-0.229,0.641-0.476,0.965-0.736c9.336,5.433,12.336,7.433,19.336-0.9"/>
<line fill="none" stroke="#000000" stroke-width="9" stroke-miterlimit="10" x1="88.045" y1="163.073" x2="100.878" y2="271.57"/>
<line fill="none" stroke="#000000" stroke-width="9" stroke-miterlimit="10" x1="140.84" y1="165.967" x2="129.262" y2="271.57"/>
</svg>
