<?xml version="1.0" encoding="utf-8"?>
<!-- Generator: Adobe Illustrator 16.0.3, SVG Export Plug-In . SVG Version: 6.00 Build 0)  -->
<!DOCTYPE svg PUBLIC "-//W3C//DTD SVG 1.1//EN" "http://www.w3.org/Graphics/SVG/1.1/DTD/svg11.dtd">
<svg version="1.1" id="Capa_1" xmlns="http://www.w3.org/2000/svg" xmlns:xlink="http://www.w3.org/1999/xlink" x="0px" y="0px"
	 width="487px" height="488px" viewBox="0 0 487 488" enable-background="new 0 0 487 488" xml:space="preserve">
<circle fill="none" stroke="#000000" stroke-width="16" stroke-miterlimit="10" cx="243.5" cy="244" r="233.5"/>
<path fill="none" stroke="#000000" stroke-width="16" stroke-miterlimit="10" d="M248.666,63.415c0,0,62.031-6.075,97.723,61.509
	c0,0,31.135,67.583-34.93,136.688c0,0-5.316-6.834-13.67,63.025c0,0,2.275,6.076-19.742,6.835h-33.713h-39.947
	c0,0-2.278-0.381-4.461-2.374c-2.183-1.99-4.271-5.6-3.892-12.055c0,0,0-47.841-12.15-53.155c0,0-69.102-75.178-30.375-147.316
	c0,0,24.834-52.68,91.77-53.297L248.666,63.415z"/>
<path fill="none" stroke="#000000" stroke-width="16" stroke-miterlimit="10" d="M247.721,331.475h-39.375
	c0,0-20.503,53.155,0,72.899c0,0,23.542,29.615,79.735,5.315c0,0,31.133-11.395,3.797-78.218L247.721,331.475L247.721,331.475z"/>
<line fill="none" stroke="#000000" stroke-width="6" stroke-miterlimit="10" x1="200.154" y1="393.562" x2="259.982" y2="375.369"/>
<line fill="none" stroke="#000000" stroke-width="6" stroke-miterlimit="10" x1="209.104" y1="402.855" x2="259.982" y2="387.636"/>
<line fill="none" stroke="#000000" stroke-width="6" stroke-miterlimit="10" x1="196.276" y1="382.979" x2="247.154" y2="367.76"/>
<line fill="none" stroke="#000000" stroke-width="6" stroke-miterlimit="10" x1="268.494" y1="361.238" x2="304.576" y2="348.85"/>
<line fill="none" stroke="#000000" stroke-width="6" stroke-miterlimit="10" x1="266.211" y1="348.85" x2="296.961" y2="338.735"/>
<path fill="none" stroke="#000000" stroke-width="9" stroke-miterlimit="10" d="M224.028,414.98c0,0-0.497,24.323,19.249,25.085
	c0,0,32.729,1.313,28.135-24.402L224.028,414.98z"/>
<path fill="none" stroke="#000000" stroke-width="9" stroke-miterlimit="10" d="M230.068,331.474"/>
<path fill="none" stroke="#000000" stroke-width="5" stroke-miterlimit="10" d="M214.766,217.249
	c0.667,0.062,1.344,0.117,2.028,0.163c9.305,8.334,11.305,5.334,21.336,0.913c0.774,0.325,1.521,0.637,2.247,0.928
	c5.064,2.031,8.962,2.979,13.421-0.202c0.316-0.229,0.641-0.476,0.965-0.736c9.336,5.433,12.336,7.433,19.336-0.9"/>
<line fill="none" stroke="#000000" stroke-width="9" stroke-miterlimit="10" x1="218.766" y1="217.249" x2="231.599" y2="325.746"/>
<line fill="none" stroke="#000000" stroke-width="9" stroke-miterlimit="10" x1="271.561" y1="220.143" x2="259.982" y2="325.746"/>
</svg>
