<?xml version="1.0" encoding="utf-8"?>
<!-- Generator: Adobe Illustrator 16.0.3, SVG Export Plug-In . SVG Version: 6.00 Build 0)  -->
<!DOCTYPE svg PUBLIC "-//W3C//DTD SVG 1.1//EN" "http://www.w3.org/Graphics/SVG/1.1/DTD/svg11.dtd">
<svg version="1.1" id="Capa_1" xmlns="http://www.w3.org/2000/svg" xmlns:xlink="http://www.w3.org/1999/xlink" x="0px" y="0px"
	 width="545px" height="428px" viewBox="0 0 545 428" enable-background="new 0 0 545 428" xml:space="preserve">
<path fill="none" stroke="#000000" stroke-width="3" stroke-miterlimit="10" d="M309.069,12.979c0,0-142.487-20.527-198.034,71.244
	c0,0-33.811,74.262,63.999,90.262c0,0,71.244,3.623,77.885,10.565c0,0,12.417,6.881,16.359,18.641
	c1.345,4.013,1.702,8.593,0.243,13.661c0,0-25.056,16.904-28.979,21.434c0,0-19.622,19.924-5.132,36.828
	c0,0,17.509,9.963,31.697-9.056c0,0-13.282,95.091-12.074,124.374c0,0-0.303,28.376,29.584,28.979c0,0,27.47,0,25.659-41.056
	c0,0-3.321-18.717,14.188-18.717c0,0,23.851-4.83,22.038,13.886c0,0-0.604,36.228,2.414,39.547c0,0,19.623,25.66,47.094,3.321
	c0,0,9.059-6.039,8.453-39.547c0,0-3.623-12.98,17.207-11.471c0,0,58.263,3.621,99.62-26.868c0,0,24.754-26.265,13.585-36.527
	c0,0-3.925-3.925-25.357,8.151c0,0-39.547,9.356-52.829-5.736c0,0-47.696-21.434-52.526-102.939c0,0-9.963-77.886-6.037-110.488
	C398.124,91.469,407.482,16.603,309.069,12.979z"/>
<path fill="none" stroke="#000000" stroke-width="3" stroke-miterlimit="10" d="M269.278,203.691c0,0-60.435-1.131-68.282,33.886
	c0,0-0.604,22.34,25.356,10.867c0,0,26.565-20.525,43.169-31.092L269.278,203.691z"/>
<path fill="none" stroke="#000000" stroke-width="4" stroke-miterlimit="10" d="M111.752,138.796c0,0,89.244-27.403,165.317-9.291"
	/>
<path fill="none" stroke="#000000" stroke-width="3" stroke-miterlimit="10" d="M219.107,123.316c0,0,10.868,32.151,34.416,23.699
	c0,0,12.074-6.574,0-21.702C253.523,125.313,228.802,123.158,219.107,123.316z"/>
<polygon fill="none" stroke="#000000" stroke-width="2" stroke-miterlimit="10" points="121.629,136.791 130.563,150.136 
	142.716,133.914 "/>
<polygon fill="none" stroke="#000000" stroke-width="2" stroke-miterlimit="10" points="147.561,130.399 160.545,143.694 
	168.637,126.972 "/>
<polygon fill="none" stroke="#000000" stroke-width="2" stroke-miterlimit="10" points="177.412,126.361 187.475,138.796 
	196.222,124.25 "/>
<polygon fill="none" stroke="#000000" stroke-width="2" stroke-miterlimit="10" points="203.594,125.419 213.657,137.854 
	222.404,123.308 "/>
<path fill="none" stroke="#000000" stroke-miterlimit="10" d="M237.221,123.308c0,0,10.902,6.028,12.539,14.544
	c0.061,0.311,0.106,0.627,0.142,0.944"/>
<path fill="none" stroke="#000000" stroke-width="2" stroke-miterlimit="10" d="M267.107,266.56c0,0,9.357-27.17,48.603-29.585"/>
<path fill="none" stroke="#000000" stroke-width="2" stroke-miterlimit="10" d="M269.523,217.354c0,0,25.659-10.565,35.923-6.944"/>
<polygon fill="none" stroke="#000000" stroke-width="3" stroke-miterlimit="10" points="385.184,45.06 408.689,49.81 396.01,62.488 
	"/>
<polygon fill="none" stroke="#000000" stroke-width="3" stroke-miterlimit="10" points="396.938,72.1 413.519,80.602 
	398.124,91.469 "/>
<polygon fill="none" stroke="#000000" stroke-width="3" stroke-miterlimit="10" points="397.587,97.451 413.519,105.959 
	397.278,117.43 "/>
<polygon fill="none" stroke="#000000" stroke-width="3" stroke-miterlimit="10" points="397.278,124.25 413.519,135.333 
	398.504,143.694 "/>
<polygon fill="none" stroke="#000000" stroke-width="3" stroke-miterlimit="10" points="398.955,150.034 413.519,160.901 
	400.678,170.089 "/>
<polygon fill="none" stroke="#000000" stroke-width="3" stroke-miterlimit="10" points="401.568,179.063 417.745,183.845 
	403.504,196.563 "/>
<polygon fill="none" stroke="#000000" stroke-width="3" stroke-miterlimit="10" points="405.398,203.688 423.18,213.503 
	407.383,227.706 "/>
<polygon fill="none" stroke="#000000" stroke-width="3" stroke-miterlimit="10" points="408.35,228.515 429.4,237.611 
	417.083,251.661 "/>
<polygon fill="none" stroke="#000000" stroke-width="3" stroke-miterlimit="10" points="415.833,255.985 438.273,258.71 
	427.053,276.969 "/>
<polygon fill="none" stroke="#000000" stroke-width="3" stroke-miterlimit="10" points="429.217,280.047 450.952,276.969 
	443.239,295.537 "/>
<polygon fill="none" stroke="#000000" stroke-width="3" stroke-miterlimit="10" points="450.088,299.113 469.14,298.169 
	465.921,309.811 "/>
<polygon fill="none" stroke="#000000" stroke-width="3" stroke-miterlimit="10" points="478.726,311.841 489.593,299.766 
	501.064,311.841 "/>
<path fill="none" stroke="#000000" stroke-width="3" stroke-miterlimit="10" d="M493.817,313.049c0,0,6.643,15.094,16.906,11.471
	c0,0,9.66-1.811,9.057-16.905"/>
<path fill="none" stroke="#000000" stroke-width="3" stroke-miterlimit="10" d="M450.966,301.525c0,0-1.962,21.731,7.19,23.407
	c0,0,19.345,4.556,23.537-11.703c0.303-1.173,0.525-2.454,0.657-3.854"/>
<path fill="none" stroke="#000000" stroke-width="3" stroke-miterlimit="10" d="M423.18,269.726c0,0-13.887,12.526-9.661,25.812
	c0,0,4.535,12.683,33.361,3.021"/>
<path fill="none" stroke="#000000" stroke-width="3" stroke-miterlimit="10" d="M407.669,229.126c0,0-24.337,9.041-19.507,26.858
	c0,0,5.622,11.447,30.283,5.878"/>
<path fill="none" stroke="#000000" stroke-width="3" stroke-miterlimit="10" d="M399.91,183.241c0,0-34.943-0.306-28.303,26.412
	c0,0-1.28,12.762,35.586,8.872"/>
<path fill="none" stroke="#000000" stroke-width="3" stroke-miterlimit="10" d="M396.01,130.581c0,0-37.433,1.339-37.433,19.452
	c0,0,0.457,24.414,40.377,20.056"/>
<path fill="none" stroke="#000000" stroke-width="3" stroke-miterlimit="10" d="M396.01,81.784c0,0-21.734,7.875-21.734,21.761
	c0,0-0.604,12.962,21.734,19.764"/>
<ellipse transform="matrix(-0.9898 0.1427 -0.1427 -0.9898 780.713 72.5786)" fill="none" stroke="#000000" stroke-width="2" stroke-miterlimit="10" cx="387.754" cy="64.285" rx="5.736" ry="9.765"/>
<ellipse transform="matrix(-0.9898 0.1427 -0.1427 -0.9898 746.4376 94.3887)" fill="none" stroke="#000000" stroke-width="2" stroke-miterlimit="10" cx="369.834" cy="73.958" rx="6.825" ry="9.661"/>
<ellipse transform="matrix(-0.9898 0.1426 -0.1426 -0.9898 738.0294 37.1163)" fill="none" stroke="#000000" stroke-width="2" stroke-miterlimit="10" cx="367.685" cy="45.007" rx="9.66" ry="12.704"/>
<ellipse fill="none" stroke="#000000" stroke-miterlimit="10" cx="349.521" cy="32.409" rx="3.772" ry="5.132"/>
<ellipse stroke="#000000" stroke-miterlimit="10" cx="269.523" cy="43.092" rx="5.132" ry="10.683"/>
<ellipse stroke="#000000" stroke-miterlimit="10" cx="289.521" cy="45.06" rx="7.021" ry="13.584"/>
<path fill="#65C8D0" d="M335.703,36.361c0,0-9.227,17.702,0,29.174c0,0,5.861,4.771,11.401-1.378
	c0.087-0.097,0.174-0.196,0.261-0.297c0.354-0.403,0.604-0.903,0.783-1.443c0.063-0.181,0.114-0.367,0.161-0.553
	c0.242-2.969,0.242-4.177-0.182-6.369c-0.057-0.237-0.115-0.482-0.167-0.681C346.425,48.838,343.021,40.325,335.703,36.361z"/>
<path fill="#65C8D0" d="M352.641,64.664c0,0-4.963,9.307,0,15.337c0,0,3.799,3.025,7-1.851c0.076-0.119,0.129-0.251,0.195-0.386
	c0,0,0.03-0.065,0.015-0.214c-0.019-0.15-0.047-0.366-0.087-0.639C359.389,74.452,357.879,67.437,352.641,64.664z"/>
<path fill="none" stroke="#000000" stroke-miterlimit="10" d="M261.371,29.295c0-2.229,4.877-4.033,10.9-4.033"/>
<path fill="none" stroke="#000000" stroke-miterlimit="10" d="M286.204,22.909c1.628-1.528,6.28,0.788,10.409,5.177"/>
<ellipse stroke="#000000" stroke-miterlimit="10" cx="142.582" cy="76.943" rx="4.979" ry="4.842"/>
<ellipse stroke="#000000" stroke-miterlimit="10" cx="158.129" cy="78.781" rx="5.434" ry="4.806"/>
<g>
	<path fill="#FFFFFF" d="M342.717,48.328c0,0,0.597,0.707,1.188,1.94c0.307,0.612,0.604,1.354,0.862,2.172
		c0.262,0.817,0.455,1.716,0.584,2.627c0.104,0.913,0.171,1.836,0.098,2.7c-0.015,0.433-0.063,0.848-0.141,1.238
		c-0.063,0.391-0.125,0.758-0.233,1.089c-0.17,0.669-0.386,1.201-0.571,1.559c-0.171,0.362-0.276,0.56-0.276,0.56
		s0.017-0.227,0.046-0.624c0.021-0.193,0.048-0.428,0.076-0.698c0.01-0.273,0.02-0.578,0.043-0.905
		c0.03-0.326,0.012-0.685,0.021-1.058c0.014-0.373-0.011-0.767-0.025-1.172c0-0.405-0.056-0.823-0.085-1.249
		c-0.019-0.426-0.09-0.854-0.145-1.283c-0.098-0.862-0.264-1.716-0.414-2.521c-0.165-0.803-0.332-1.555-0.486-2.201
		C342.933,49.197,342.717,48.328,342.717,48.328z"/>
</g>
<g>
	<path fill="#FFFFFF" d="M356,70.363c0,0,0.361,0.363,0.729,0.985c0.376,0.618,0.771,1.491,1.016,2.42
		c0.238,0.929,0.326,1.914,0.208,2.665c-0.045,0.373-0.159,0.684-0.258,0.88c-0.111,0.201-0.185,0.295-0.185,0.295
		s-0.019-0.122-0.054-0.333c-0.003-0.099-0.058-0.226-0.077-0.359c-0.025-0.134-0.077-0.286-0.119-0.45
		c-0.186-0.654-0.449-1.512-0.683-2.396c-0.226-0.882-0.415-1.789-0.499-2.495C355.982,70.874,356,70.363,356,70.363z"/>
</g>
<polygon fill="none" stroke="#000000" stroke-width="3" stroke-miterlimit="10" points="7.23,420.106 26.96,420.106 26.96,314.95 
	39.02,314.95 207.673,314.95 207.673,420.106 225.791,420.106 225.791,294.922 7.23,294.922 "/>
<polyline fill="none" stroke="#000000" stroke-width="3" stroke-miterlimit="10" points="26.96,406.085 42.308,406.085 
	42.308,316.953 "/>
<polyline fill="none" stroke="#000000" stroke-width="3" stroke-miterlimit="10" points="188.531,316.953 188.531,406.085 
	207.429,406.085 "/>
<path stroke="#000000" stroke-miterlimit="10" d="M116.766,291.785l0.101-3.382c0,0,70.406,1.231,84.311,3.155L116.766,291.785z"/>
<rect x="80.97" y="164.505" stroke="#000000" stroke-miterlimit="10" width="35.722" height="89.281"/>
<path stroke="#000000" stroke-miterlimit="10" d="M116.689,177.939c0,0,11.582,25.647,0,60.401"/>
<polygon stroke="#000000" stroke-miterlimit="10" points="80.97,168.402 27.044,193.303 27.044,238.341 80.97,245.272 "/>
<polygon stroke="#000000" stroke-miterlimit="10" points="41.851,236.456 41.851,264.369 68.566,264.369 68.566,238.257 "/>
<rect x="19.932" y="260.958" stroke="#000000" stroke-miterlimit="10" width="82.07" height="32.788"/>
</svg>
